trial_4_US.mot
nRows=120
nColumns=2

name trial_4_US.mot
datacolumns 2
datarows 120
range 6.000000 7.190000
endheader
time	med_gas_l
        6.0000000000	       80.9393416861	
        6.0100000000	       83.8210654321	
        6.0200000000	       79.5104293370	
        6.0300000000	       74.0902405886	
        6.0400000000	       71.7717430542	
        6.0500000000	       69.3672089947	
        6.0600000000	       66.7941239386	
        6.0700000000	       65.9317973264	
        6.0800000000	       66.8158038234	
        6.0900000000	       68.7942900310	
        6.1000000000	       70.9370166275	
        6.1100000000	       72.9634075451	
        6.1200000000	       74.8659152298	
        6.1300000000	       76.0077666576	
        6.1400000000	       76.9477107187	
        6.1500000000	       79.8785811054	
        6.1600000000	       81.6595472602	
        6.1700000000	       77.9183587514	
        6.1800000000	       73.4716960228	
        6.1900000000	       71.9558952508	
        6.2000000000	       71.6755667125	
        6.2100000000	       71.6784303067	
        6.2200000000	       71.8417462188	
        6.2300000000	       72.2471310116	
        6.2400000000	       72.8802706956	
        6.2500000000	       73.5167792792	
        6.2600000000	       74.0722400470	
        6.2700000000	       74.5358977944	
        6.2800000000	       74.7918010899	
        6.2900000000	       75.2548145044	
        6.3000000000	       77.0370080205	
        6.3100000000	       79.3418511297	
        6.3200000000	       80.5237706408	
        6.3300000000	       80.6392779138	
        6.3400000000	       80.2662262679	
        6.3500000000	       80.0638638346	
        6.3600000000	       80.0124392553	
        6.3700000000	       79.7462716031	
        6.3800000000	       79.2943942894	
        6.3900000000	       78.9262374735	
        6.4000000000	       79.0839267556	
        6.4100000000	       79.7052456484	
        6.4200000000	       80.4285377972	
        6.4300000000	       81.0407333801	
        6.4400000000	       81.4938110867	
        6.4500000000	       81.9233423307	
        6.4600000000	       82.3272679612	
        6.4700000000	       82.6228515102	
        6.4800000000	       82.8019025228	
        6.4900000000	       82.8773198981	
        6.5000000000	       82.8592631196	
        6.5100000000	       82.6894546896	
        6.5200000000	       82.3578191236	
        6.5300000000	       82.2195654019	
        6.5400000000	       82.4764157151	
        6.5500000000	       82.9399551240	
        6.5600000000	       83.2865533286	
        6.5700000000	       83.2566480239	
        6.5800000000	       83.1070493670	
        6.5900000000	       83.0393128655	
        6.6000000000	       82.9876214689	
        6.6100000000	       83.0938288077	
        6.6200000000	       83.1358312234	
        6.6300000000	       80.8885105670	
        6.6400000000	       76.6147944546	
        6.6500000000	       74.7860326179	
        6.6600000000	       75.1056747116	
        6.6700000000	       74.8407165676	
        6.6800000000	       74.7608455673	
        6.6900000000	       74.5474273051	
        6.7000000000	       71.2797302236	
        6.7100000000	       67.3110007012	
        6.7200000000	       66.7561774253	
        6.7300000000	       66.5899642613	
        6.7400000000	       64.8022748020	
        6.7500000000	       63.5218874001	
        6.7600000000	       62.4309445856	
        6.7700000000	       60.2280278600	
        6.7800000000	       58.9044583047	
        6.7900000000	       59.5338260291	
        6.8000000000	       60.5365083081	
        6.8100000000	       60.8928914255	
        6.8200000000	       60.5177713340	
        6.8300000000	       60.9980441755	
        6.8400000000	       62.8583382554	
        6.8500000000	       64.3671992902	
        6.8600000000	       64.1143044742	
        6.8700000000	       62.0136586206	
        6.8800000000	       61.8807154521	
        6.8900000000	       64.8019109034	
        6.9000000000	       66.4657306787	
        6.9100000000	       66.3160245185	
        6.9200000000	       66.2700436760	
        6.9300000000	       67.2036945868	
        6.9400000000	       69.1281718916	
        6.9500000000	       71.1603394744	
        6.9600000000	       72.6699564000	
        6.9700000000	       73.4947427396	
        6.9800000000	       74.4788862636	
        6.9900000000	       76.0338853217	
        7.0000000000	       77.5313014610	
        7.0100000000	       78.5277018217	
        7.0200000000	       79.0192451846	
        7.0300000000	       80.0310880670	
        7.0400000000	       81.7232990910	
        7.0500000000	       82.6528954335	
        7.0600000000	       82.8855315198	
        7.0700000000	       83.3618461680	
        7.0800000000	       84.2561891405	
        7.0900000000	       85.3517178653	
        7.1000000000	       86.1632475475	
        7.1100000000	       86.5912539246	
        7.1200000000	       86.8071473712	
        7.1300000000	       87.0019998722	
        7.1400000000	       87.0230245717	
        7.1500000000	       86.2843194718	
        7.1600000000	       85.4092106549	
        7.1700000000	       85.2451237442	
        7.1800000000	       84.3464091195	
        7.1900000000	       82.9457484388	
